<svg xmlns="http://www.w3.org/2000/svg" width="250.000mm" height="175.000mm" viewBox="0 0 250.000 175.000">
<rect width="250.000" height="175.000" fill="white"/>
<rect x="0.000" y="0.000" width="25.000" height="25.000" fill="black"/>
<rect x="50.000" y="0.000" width="25.000" height="25.000" fill="black"/>
<rect x="100.000" y="0.000" width="25.000" height="25.000" fill="black"/>
<rect x="150.000" y="0.000" width="25.000" height="25.000" fill="black"/>
<rect x="200.000" y="0.000" width="25.000" height="25.000" fill="black"/>
<rect x="25.000" y="25.000" width="25.000" height="25.000" fill="black"/>
<rect x="75.000" y="25.000" width="25.000" height="25.000" fill="black"/>
<rect x="125.000" y="25.000" width="25.000" height="25.000" fill="black"/>
<rect x="175.000" y="25.000" width="25.000" height="25.000" fill="black"/>
<rect x="225.000" y="25.000" width="25.000" height="25.000" fill="black"/>
<rect x="0.000" y="50.000" width="25.000" height="25.000" fill="black"/>
<rect x="50.000" y="50.000" width="25.000" height="25.000" fill="black"/>
<rect x="100.000" y="50.000" width="25.000" height="25.000" fill="black"/>
<rect x="150.000" y="50.000" width="25.000" height="25.000" fill="black"/>
<rect x="200.000" y="50.000" width="25.000" height="25.000" fill="black"/>
<rect x="25.000" y="75.000" width="25.000" height="25.000" fill="black"/>
<rect x="75.000" y="75.000" width="25.000" height="25.000" fill="black"/>
<rect x="125.000" y="75.000" width="25.000" height="25.000" fill="black"/>
<rect x="175.000" y="75.000" width="25.000" height="25.000" fill="black"/>
<rect x="225.000" y="75.000" width="25.000" height="25.000" fill="black"/>
<rect x="0.000" y="100.000" width="25.000" height="25.000" fill="black"/>
<rect x="50.000" y="100.000" width="25.000" height="25.000" fill="black"/>
<rect x="100.000" y="100.000" width="25.000" height="25.000" fill="black"/>
<rect x="150.000" y="100.000" width="25.000" height="25.000" fill="black"/>
<rect x="200.000" y="100.000" width="25.000" height="25.000" fill="black"/>
<rect x="25.000" y="125.000" width="25.000" height="25.000" fill="black"/>
<rect x="75.000" y="125.000" width="25.000" height="25.000" fill="black"/>
<rect x="125.000" y="125.000" width="25.000" height="25.000" fill="black"/>
<rect x="175.000" y="125.000" width="25.000" height="25.000" fill="black"/>
<rect x="225.000" y="125.000" width="25.000" height="25.000" fill="black"/>
<rect x="0.000" y="150.000" width="25.000" height="25.000" fill="black"/>
<rect x="50.000" y="150.000" width="25.000" height="25.000" fill="black"/>
<rect x="100.000" y="150.000" width="25.000" height="25.000" fill="black"/>
<rect x="150.000" y="150.000" width="25.000" height="25.000" fill="black"/>
<rect x="200.000" y="150.000" width="25.000" height="25.000" fill="black"/>
</svg>
